HIERARCHY
ROOT hips
{
  OFFSET 0 10.680822821525009 1.3929502295107734
  CHANNELS 6 Xposition Yposition Zposition Yrotation Xrotation Zrotation
  JOINT spine
  {
    OFFSET -7.042017322922631e-31 0.6058489940359625 0
    CHANNELS 3 Yrotation Xrotation Zrotation
    JOINT chest
    {
      OFFSET 0 1.2699794144455032 0
      CHANNELS 3 Yrotation Xrotation Zrotation
      JOINT upperChest
      {
        OFFSET 0 1.217799211677689 0
        CHANNELS 3 Yrotation Xrotation Zrotation
        JOINT neck
        {
          OFFSET 0 1.5248826104153006 0
          CHANNELS 3 Yrotation Xrotation Zrotation
          JOINT head
          {
            OFFSET 0 0.8197772727844447 0
            CHANNELS 3 Yrotation Xrotation Zrotation
            JOINT leftEye
            {
              OFFSET 0.2793952361220866 0.6769952096623495 0.1830357412467788
              CHANNELS 3 Yrotation Xrotation Zrotation
              End Site
              {
                OFFSET 0.2793952361220866 0.6769952096623495 0.1830357412467788
              }
            }
            JOINT rightEye
            {
              OFFSET -0.27939522230689573 0.676995205357064 0.18303631459760622
              CHANNELS 3 Yrotation Xrotation Zrotation
              End Site
              {
                OFFSET -0.27939522230689573 0.676995205357064 0.18303631459760622
              }
            }
          }
        }
        JOINT leftShoulder
        {
          OFFSET 0.41486978509200423 1.1670505408695453 0
          CHANNELS 3 Yrotation Xrotation Zrotation
          JOINT leftUpperArm
          {
            OFFSET 0.9737926108153417 0 0
            CHANNELS 3 Yrotation Xrotation Zrotation
            JOINT leftLowerArm
            {
              OFFSET 2.5269332222665284 0 0
              CHANNELS 3 Yrotation Xrotation Zrotation
              JOINT leftHand
              {
                OFFSET 2.4263782738425914 0 0
                CHANNELS 3 Yrotation Xrotation Zrotation
                JOINT leftIndexProximal
                {
                  OFFSET 0.724320348022514 0.08170607082582437 0.20360061616140124
                  CHANNELS 3 Yrotation Xrotation Zrotation
                  JOINT leftIndexIntermediate
                  {
                    OFFSET 0.36548960630744587 -0.010566596513783999 -0.01414783573280308
                    CHANNELS 3 Yrotation Xrotation Zrotation
                    JOINT leftIndexDistal
                    {
                      OFFSET 0.22502819650693362 -0.007863819831430696 -0.007567681939621526
                      CHANNELS 3 Yrotation Xrotation Zrotation
                      End Site
                      {
                        OFFSET 0.22502819650693362 -0.007863819831430696 -0.007567681939621526
                      }
                    }
                  }
                }
                JOINT leftLittleProximal
                {
                  OFFSET 0.6720322998298205 0.08170601055037707 -0.3230036039466837
                  CHANNELS 3 Yrotation Xrotation Zrotation
                  JOINT leftLittleIntermediate
                  {
                    OFFSET 0.34583592281688713 5.476543019078406e-8 1.3869203337180114e-7
                    CHANNELS 3 Yrotation Xrotation Zrotation
                    JOINT leftLittleDistal
                    {
                      OFFSET 0.19925728062053938 0.003098047439490381 0.0038303983709246925
                      CHANNELS 3 Yrotation Xrotation Zrotation
                      End Site
                      {
                        OFFSET 0.19925728062053938 0.003098047439490381 0.0038303983709246925
                      }
                    }
                  }
                }
                JOINT leftMiddleProximal
                {
                  OFFSET 0.7300436596551069 0.0817073395107144 0.022661722987926763
                  CHANNELS 3 Yrotation Xrotation Zrotation
                  JOINT leftMiddleIntermediate
                  {
                    OFFSET 0.40758254347686607 -0.0000012383587111308714 2.408460318820138e-7
                    CHANNELS 3 Yrotation Xrotation Zrotation
                    JOINT leftMiddleDistal
                    {
                      OFFSET 0.2514490105498507 0.0000013869132886590307 9.738618134136345e-8
                      CHANNELS 3 Yrotation Xrotation Zrotation
                      End Site
                      {
                        OFFSET 0.2514490105498507 0.0000013869132886590307 9.738618134136345e-8
                      }
                    }
                  }
                }
                JOINT leftRingProximal
                {
                  OFFSET 0.7217261161191838 0.08170601902187746 -0.15043395722184966
                  CHANNELS 3 Yrotation Xrotation Zrotation
                  JOINT leftRingIntermediate
                  {
                    OFFSET 0.37808807487521556 0.0000013754022405443322 2.2046919317952884e-7
                    CHANNELS 3 Yrotation Xrotation Zrotation
                    JOINT leftRingDistal
                    {
                      OFFSET 0.21812105442344254 -0.002713483731960231 -0.004991354517454624
                      CHANNELS 3 Yrotation Xrotation Zrotation
                      End Site
                      {
                        OFFSET 0.21812105442344254 -0.002713483731960231 -0.004991354517454624
                      }
                    }
                  }
                }
                JOINT leftThumbProximal
                {
                  OFFSET 0.10793587079521427 -0.1652791240518252 -0.07775251827190094
                  CHANNELS 3 Yrotation Xrotation Zrotation
                  JOINT leftThumbIntermediate
                  {
                    OFFSET 0.40355819082296684 -0.017484006740276614 0.3177776014416309
                    CHANNELS 3 Yrotation Xrotation Zrotation
                    JOINT leftThumbDistal
                    {
                      OFFSET 0.2318764658022603 -0.018510186824293617 0.21396001800186287
                      CHANNELS 3 Yrotation Xrotation Zrotation
                      End Site
                      {
                        OFFSET 0.2318764658022603 -0.018510186824293617 0.21396001800186287
                      }
                    }
                  }
                }
              }
            }
          }
        }
        JOINT rightShoulder
        {
          OFFSET -0.4148697850920044 1.1670505408695453 0
          CHANNELS 3 Yrotation Xrotation Zrotation
          JOINT rightUpperArm
          {
            OFFSET -0.9737926108153414 0 0
            CHANNELS 3 Yrotation Xrotation Zrotation
            JOINT rightLowerArm
            {
              OFFSET -2.5269332222665293 0 0
              CHANNELS 3 Yrotation Xrotation Zrotation
              JOINT rightHand
              {
                OFFSET -2.42637827384259 0 0
                CHANNELS 3 Yrotation Xrotation Zrotation
                JOINT rightIndexProximal
                {
                  OFFSET -0.724320348022514 0.08170607082582437 0.20360061616140124
                  CHANNELS 3 Yrotation Xrotation Zrotation
                  JOINT rightIndexIntermediate
                  {
                    OFFSET -0.36548960630744587 -0.010566596513783999 -0.01414783573280308
                    CHANNELS 3 Yrotation Xrotation Zrotation
                    JOINT rightIndexDistal
                    {
                      OFFSET -0.22502819650693362 -0.007863819831430696 -0.007567681939621526
                      CHANNELS 3 Yrotation Xrotation Zrotation
                      End Site
                      {
                        OFFSET -0.22502819650693362 -0.007863819831430696 -0.007567681939621526
                      }
                    }
                  }
                }
                JOINT rightLittleProximal
                {
                  OFFSET -0.6720322998298205 0.08170601055037707 -0.3230036039466837
                  CHANNELS 3 Yrotation Xrotation Zrotation
                  JOINT rightLittleIntermediate
                  {
                    OFFSET -0.34583592281688713 5.476543019078406e-8 1.3869203337180114e-7
                    CHANNELS 3 Yrotation Xrotation Zrotation
                    JOINT rightLittleDistal
                    {
                      OFFSET -0.19925728062053938 0.003098047439490381 0.0038303983709246925
                      CHANNELS 3 Yrotation Xrotation Zrotation
                      End Site
                      {
                        OFFSET -0.19925728062053938 0.003098047439490381 0.0038303983709246925
                      }
                    }
                  }
                }
                JOINT rightMiddleProximal
                {
                  OFFSET -0.7300436596551069 0.0817073395107144 0.022661722987926763
                  CHANNELS 3 Yrotation Xrotation Zrotation
                  JOINT rightMiddleIntermediate
                  {
                    OFFSET -0.40758254347686607 -0.0000012383587111308714 2.408460318820138e-7
                    CHANNELS 3 Yrotation Xrotation Zrotation
                    JOINT rightMiddleDistal
                    {
                      OFFSET -0.2514490105498507 0.0000013869132886590307 9.738618134136345e-8
                      CHANNELS 3 Yrotation Xrotation Zrotation
                      End Site
                      {
                        OFFSET -0.2514490105498507 0.0000013869132886590307 9.738618134136345e-8
                      }
                    }
                  }
                }
                JOINT rightRingProximal
                {
                  OFFSET -0.7217261161191838 0.08170601902187746 -0.15043395722184966
                  CHANNELS 3 Yrotation Xrotation Zrotation
                  JOINT rightRingIntermediate
                  {
                    OFFSET -0.37808807487521556 0.0000013754022405443322 2.2046919317952884e-7
                    CHANNELS 3 Yrotation Xrotation Zrotation
                    JOINT rightRingDistal
                    {
                      OFFSET -0.21812105442344254 -0.002713483731960231 -0.004991354517454624
                      CHANNELS 3 Yrotation Xrotation Zrotation
                      End Site
                      {
                        OFFSET -0.21812105442344254 -0.002713483731960231 -0.004991354517454624
                      }
                    }
                  }
                }
                JOINT rightThumbProximal
                {
                  OFFSET -0.10793587079521427 -0.1652791240518252 -0.07775251827190094
                  CHANNELS 3 Yrotation Xrotation Zrotation
                  JOINT rightThumbIntermediate
                  {
                    OFFSET -0.40355819082296684 -0.017484006740276614 0.3177776014416309
                    CHANNELS 3 Yrotation Xrotation Zrotation
                    JOINT rightThumbDistal
                    {
                      OFFSET -0.2318764658022603 -0.018510186824293617 0.21396001800186287
                      CHANNELS 3 Yrotation Xrotation Zrotation
                      End Site
                      {
                        OFFSET -0.2318764658022603 -0.018510186824293617 0.21396001800186287
                      }
                    }
                  }
                }
              }
            }
          }
        }
      }
    }
  }
  JOINT leftUpperLeg
  {
    OFFSET 0.8486251390888677 -0.4421577294694363 0
    CHANNELS 3 Yrotation Xrotation Zrotation
    JOINT leftLowerLeg
    {
      OFFSET 0 -4.10147812638609 0
      CHANNELS 3 Yrotation Xrotation Zrotation
      JOINT leftFoot
      {
        OFFSET -0.0002543926476658853 -4.77292286812444 0.007402811231737388
        CHANNELS 3 Yrotation Xrotation Zrotation
        JOINT leftToes
        {
          OFFSET 0 -0.7027875951174846 1.2062924140498823
          CHANNELS 3 Yrotation Xrotation Zrotation
          End Site
          {
            OFFSET 0 -0.7027875951174846 1.2062924140498823
          }
        }
      }
    }
  }
  JOINT rightUpperLeg
  {
    OFFSET -0.8486251390888677 -0.4421577294694363 0
    CHANNELS 3 Yrotation Xrotation Zrotation
    JOINT rightLowerLeg
    {
      OFFSET 0 -4.10147812638609 0
      CHANNELS 3 Yrotation Xrotation Zrotation
      JOINT rightFoot
      {
        OFFSET 0.0002543926476658853 -4.77292286812444 0.007402811231737388
        CHANNELS 3 Yrotation Xrotation Zrotation
        JOINT rightToes
        {
          OFFSET 0 -0.7027875951174846 1.2062924140498823
          CHANNELS 3 Yrotation Xrotation Zrotation
          End Site
          {
            OFFSET 0 -0.7027875951174846 1.2062924140498823
          }
        }
      }
    }
  }
}
MOTION
Frames: 4
Frame Time: 0.03333333333333333
-0.028646642342209816 -0.1079401692422941 -0.10485748201608658 -6.016496582053756 -0.7111486339798838 -2.9584775221307966 0.7589775920485786 1.1767831351021298 1.054420109765293 3.124518398102179 4.6495245563455265 3.435736789978477 0 0 0 1.0296441162125007 -10.173893492746238 1.200334065444217 1.2633656279453955 4.557589869006062 -2.8125936509687666 0 0 0 0 0 0 0.08614610499247588 -2.3591481586863865 -11.206957689028672 -24.18913164843591 15.831054186361465 -70.66080087498915 -26.838709329974762 0.7358977701757133 0.3341464056278332 -4.58647608503367 -31.150185818167007 12.981616880758072 12.046789924429138 -6.4025293544025645 -14.45312826848083 0.963816671612012 0.5369292428350377 -11.36275939424376 8.521945135744659e-7 -2.1792191244321106e-7 0.0000025309313239954577 6.596172649634965 6.525122549265696 -28.018518028275206 -3.0035021371808157 -0.5231937849280701 -16.311921922807414 -0.0000028683436988220705 0.000001743009103201884 -0.0000024985008617970084 6.770586728390777 -0.8069910133518118 -10.776410039590862 -0.42494444825214284 -0.027465063820890135 -10.3423743373022 1.139979627027678e-10 6.3611093629270335e-15 -1.43444452663829e-12 6.311265808918232 1.884013245903319 -19.103556055366173 -0.017603813409391687 -0.11072465241984969 -10.401224960206207 7.981372973195629e-7 -2.494114139002586e-7 -1.0309038062664593e-8 9.51801820809037 14.897303949804973 10.527833185604848 9.937921356949465 4.127519067796425 6.093610019887178 0.000007611937552502998 0.000009677048807183644 -0.000010755909239575867 -0.004763077695084582 -1.552733460916469 7.362336798685293 -4.560434933224064 6.8003728996906485 74.12153203706671 33.80291259207412 -6.2594384743713505 -0.41363601525330623 9.198942119962062 36.44081974679526 13.258731492847772 -6.768051550386472 -8.724939800616431 6.444732385189264 -1.1224850996090352 0.20081784451546325 23.918627732280974 3.933694872703174e-10 3.1805546814635168e-15 -4.874754472204794e-12 -3.2201422465127862 1.4560646915417577 22.37019293184583 4.225255413206329 -1.3006052181823273 12.387736591478921 0.0000016797014090447868 0.000003467099351158676 0.000006747616474483437 -2.7811453277238356 -1.9127685436821937 18.649148868519664 1.715504402215641 -0.30013447894436646 17.12229285258456 -0.0000034474998063228686 0.000008070193906563331 0.0000029748370153329526 -3.762254265651953 -0.6262444462164892 20.45808962078625 0.567073032971755 -0.36829153889703903 9.341721603782805 -3.2495571969444293e-7 -0.000001899806886776792 -0.000001183279111251214 -16.08347328156569 -7.633454799361495 -1.7488714434754207 -13.839277332870967 5.887444313496634 -4.9786650076856604 0.000002231324090779093 0.000004237706734044115 0.000007466467021815095 1.9030574834071456 -14.468520922341447 8.30048587849054 -0.07411205409061683 15.429102411783164 -0.5685094742676724 18.118488189754554 2.403578704281762 -3.138728465179667 3.198950680241331 0.08211299586741769 -1.5396017913002091 -6.734432996437939 -0.3665171206551311 6.5679087851466305 0.054435704175355676 7.092293125224328 0.2717636346148533 -12.614646628061786 -5.856578093721303 -2.334995608812985 0.9630397319921306 -2.7554104578130922 -0.6448768930820463
-0.02822866477072239 -0.10777422991123942 -0.10394739359617233 -6.070535604814184 -0.6938180208289969 -2.9627959016425 0.7620855940636823 1.1748797795737729 1.059741579697667 3.1372024434803776 4.6412670526829745 3.4567969553760656 0 0 0 1.0369297228618075 -10.166905692686544 1.1917920859495825 1.269809297088186 4.625963943707131 -2.808936593441428 0 0 0 0 0 0 0.08428034924692636 -2.3593006865681314 -11.21439744028544 -24.163749143024173 15.980304840775013 -70.61532216967967 -27.142969594941807 0.7515704794050511 0.3376735952694938 -4.565147807225126 -31.164149473562876 12.863495620663887 12.082224308852945 -6.383446239879568 -14.523617219927162 0.9653113602768892 0.5375053519264961 -11.390643891218712 8.521945135744659e-7 -2.1792191244321106e-7 0.0000025309313239954577 6.578035082557386 6.520593416439281 -27.91273397307742 -3.0051483281429534 -0.5236508930680828 -16.313652084954253 -0.0000028683436988220705 0.000001743009103201884 -0.0000024985008617970084 6.768636726049708 -0.8068749953517989 -10.83051549555985 -0.4271812404742277 -0.02778733672938608 -10.377399779523838 1.139979627027678e-10 6.3611093629270335e-15 -1.43444452663829e-12 6.285630306226387 1.8747616872538149 -19.137402926544826 -0.019540260069948044 -0.11111037873785433 -10.418624060520209 7.981372973195629e-7 -2.494114139002586e-7 -1.0309038062664593e-8 9.504977369429946 14.903665017942552 10.516536753515034 9.955215166012161 4.111798040860471 6.09958205395419 0.000007611937552502998 0.000009677048807183644 -0.000010755909239575867 -0.00038490185159841217 -1.5573184198242749 7.3557386623401015 -4.069850458873347 6.942638880643306 74.01940538165475 33.838733903456934 -6.125662981567717 -0.4139296140199663 9.135141485816181 36.03000582303176 13.105054618301756 -6.780872118196469 -8.694372257653777 6.648284169437467 -1.1131680044718666 0.1876182813390267 23.570141882802087 3.933694872703174e-10 3.1805546814635168e-15 -4.874754472204794e-12 -3.132693015580628 1.4273027314021125 22.46066458471585 4.218013453547933 -1.2950416691034798 12.315667385182703 0.0000016797014090447868 0.000003467099351158676 0.000006747616474483437 -2.853127830688355 -1.8733882980695393 18.603848674089843 1.6977587203491653 -0.29609818271452265 17.035422815283127 -0.0000034474998063228686 0.000008070193906563331 0.0000029748370153329526 -3.765298335309328 -0.6357085673752553 20.575869888267714 0.5667161852587175 -0.3681465011037438 9.337534583426104 -3.2495571969444293e-7 -0.000001899806886776792 -0.000001183279111251214 -16.101058651216093 -7.6070104118618245 -1.7439488966985588 -13.868887023281296 5.855355084026552 -4.993526593294273 0.000002231324090779093 0.000004237706734044115 0.000007466467021815095 1.8715852949263942 -14.470074549982101 8.309638292328419 -0.023060533457295748 15.433472470484704 -0.5518033444792751 18.152566703476882 2.395596819024257 -3.151382019760857 3.2153237156808596 0.08326161610246739 -1.5401636175667341 -6.750081696254209 -0.3620835979352431 6.57395492395576 0.10305036583565774 7.060418014051192 0.26796368456106473 -12.595492591539259 -5.840482212835358 -2.335488413705561 0.9603380471542856 -2.7582653659098577 -0.6429454889684985
-0.027850499376654625 -0.10740038957920817 -0.1013474240899086 -6.178849110886483 -0.6618776605351498 -2.979073623707984 0.7692328183117305 1.1675890571040315 1.073724399684791 3.16644891442262 4.6104538814689215 3.511316249306913 0 0 0 1.0368075108546466 -10.117437716614878 1.1940468065007683 1.2774667558127855 4.829453675884142 -2.7953377851739702 0 0 0 0 0 0 0.08312882094992448 -2.3593827183769966 -11.219621273336772 -24.1013020011689 16.211670180118826 -70.49189029606592 -27.678399927182447 0.7801558809451568 0.34381551943240324 -4.436148907322471 -31.007924706849877 12.512732050700807 12.15238353235043 -6.344096673207397 -14.665669759085988 0.9686748765957496 0.5386155734254865 -11.45224078304687 8.521945135744659e-7 -2.1792191244321106e-7 0.0000025309313239954577 6.540981120071481 6.510285398409441 -27.70648664750869 -3.00788485215556 -0.5243802063462548 -16.31367886639442 -0.0000028683436988220705 0.000001743009103201884 -0.0000024985008617970084 6.764997347092147 -0.8054900374027671 -10.938635857296296 -0.4311815285688778 -0.02839220041238908 -10.439691399235777 1.139979627027678e-10 6.3611093629270335e-15 -1.43444452663829e-12 6.236641287315014 1.8570240994020653 -19.204839634479303 -0.02267715358681627 -0.11165006475360881 -10.44627110620998 7.981372973195629e-7 -2.494114139002586e-7 -1.0309038062664593e-8 9.473473063741826 14.904776457190328 10.493981429220616 9.99288668017629 4.081129833189396 6.111717385514961 0.000007611937552502998 0.000009677048807183644 -0.000010755909239575867 0.012200952153287967 -1.5614279803714883 7.341563800111083 -3.044074388303378 7.256554400277387 73.80494078437583 33.9211671126361 -5.841904299530779 -0.414615261405715 8.96616427830542 35.15187506467575 12.758168275436526 -6.808276418085658 -8.626812052790306 7.063865443308952 -1.093127603253916 0.16113638112698703 22.84031491745687 3.933694872703174e-10 3.1805546814635168e-15 -4.874754472204794e-12 -2.988709402704362 1.3799080206229637 22.610039235815016 4.2090265590919875 -1.2882244753557037 12.23162984704953 0.0000016797014090447868 0.000003467099351158676 0.000006747616474483437 -3.0007701389767725 -1.789093682580105 18.496008604220737 1.6589727265733547 -0.28711313924652887 16.83331531542076 -0.0000034474998063228686 0.000008070193906563331 0.0000029748370153329526 -3.7747123665194304 -0.6500107631901652 20.772502383840973 0.5657798942436466 -0.36778654804746164 9.329509770143671 -3.2495571969444293e-7 -0.000001899806886776792 -0.000001183279111251214 -16.116912959095625 -7.529986403924402 -1.71392511592626 -13.918790065820932 5.7983499157623495 -5.019468510262513 0.000002231324090779093 0.000004237706734044115 0.000007466467021815095 1.7988079976158782 -14.469448512564961 8.340248104540862 0.08388212912761729 15.452427580617035 -0.5171182447773496 18.222891287050214 2.3712006901159297 -3.1840968267485823 3.250311394972325 0.08486206988579624 -1.541338478158 -6.781937122813184 -0.32195103841215117 6.596884174138627 0.2038618981235292 6.953166378202836 0.2586431165935131 -12.547358079581988 -5.797732466855986 -2.343101491370637 0.9537502509500825 -2.764311553941219 -0.6383752233886884
-0.02787512168288231 -0.10705992784825114 -0.09732115268707275 -6.283896423585056 -0.6366741915339488 -3.0093915489125598 0.7778649924109233 1.1552877069732257 1.0940466312727641 3.2020968558034935 4.559005206688254 3.589008298809435 0 0 0 1.014648188575135 -9.97291696808853 1.2182325740088764 1.2766915574150972 5.148924444270374 -2.7724540264577806 0 0 0 0 0 0 0.08643876139726113 -2.358949274316689 -11.207974923894335 -24.017440042482374 16.332303205470545 -70.31921843113346 -28.097376289075697 0.8043679080163766 0.34861668037659677 -4.168486874261671 -30.52979548584627 11.974323323296314 12.221131980724738 -6.302536123496366 -14.80938243873685 0.9726583947854033 0.5396149063555294 -11.523294274166885 8.521945135744659e-7 -2.1792191244321106e-7 0.0000025309313239954577 6.5025852375252855 6.497660931834086 -27.514863175372795 -3.009691876287266 -0.5247016122321823 -16.30798812502104 -0.0000028683436988220705 0.000001743009103201884 -0.0000024985008617970084 6.761851284507412 -0.8018984453070411 -11.046748254777796 -0.43429992206972645 -0.028965536168097914 -10.487210360540537 1.139979627027678e-10 6.3611093629270335e-15 -1.43444452663829e-12 6.191919656616918 1.8407315927264116 -19.271704023775484 -0.024166324269060048 -0.11177320849593095 -10.458910681445646 7.981372973195629e-7 -2.494114139002586e-7 -1.0309038062664593e-8 9.432760843059915 14.885333282353999 10.47120100312692 10.03628967593432 4.052029544271684 6.124303100619553 0.000007611937552502998 0.000009677048807183644 -0.000010755909239575867 0.03143745102529824 -1.5560689945807673 7.325490008449511 -1.9648871383143123 7.615343232591529 73.57250733453681 34.02616105810061 -5.537830563463105 -0.41554441397033504 8.731729844030879 34.19764545655418 12.358723477289383 -6.8375519219728735 -8.54996620176106 7.486282079387088 -1.0713594135817803 0.13495675204514665 22.071985633687106 3.933694872703174e-10 3.1805546814635168e-15 -4.874754472204794e-12 -2.8990373535298697 1.3504082777032052 22.70363713536094 4.208595227956014 -1.2881003266364324 12.24173341107234 0.0000016797014090447868 0.000003467099351158676 0.000006747616474483437 -3.151472868276032 -1.6971701492139353 18.362208331538806 1.615541326818483 -0.2767151709334967 16.588109665535693 -0.0000034474998063228686 0.000008070193906563331 0.0000029748370153329526 -3.7899650020886955 -0.6561377875284785 20.899930212094613 0.5645027830768421 -0.367306290489967 9.322206977884942 -3.2495571969444293e-7 -0.000001899806886776792 -0.000001183279111251214 -16.100314350145727 -7.4136167552559 -1.6496442334563635 -13.952157504817313 5.753839969718839 -5.039024021088413 0.000002231324090779093 0.000004237706734044115 0.000007466467021815095 1.7085192702544783 -14.464344169119311 8.390653216651922 0.19657453843006248 15.496838932515406 -0.4813562916401594 18.2962088931901 2.3275218407749447 -3.228101186684382 3.2888163131725876 0.08695927382398043 -1.5426338760672544 -6.816816459850191 -0.23206231462574647 6.636587267721507 0.30825856681771646 6.784898919100267 0.24649478423748153 -12.482095241702062 -5.744699165828836 -2.358278620771771 0.9453171849615062 -2.770955472698107 -0.6327034340106296
